<svg xmlns="http://www.w3.org/2000/svg" width="310.55" height="73.984" viewBox="0 0 310.55 73.984">
  <g id="Thank_you_" data-name="Thank you " transform="translate(-460.024 -430.799)" style="isolation: isolate">
    <g id="Group_106" data-name="Group 106" style="isolation: isolate">
      <path id="Path_152" data-name="Path 152" d="M509.223,465.951c1.029-.032,1.428,1.014.918,2.107a1.7,1.7,0,0,1-1.555,1.1c-2.472.112-4.945.217-7.419.286-3.549.1-7.1.139-10.651.268-1.287.046-1.6.473-1.9,1.984-.969,4.912-1.983,18.131-2.272,23.173-.057,1.005-.113,2.019-.268,3-.178,1.126-.85,1.744-1.5,1.5a1.566,1.566,0,0,1-.894-1.8c.225-2.757.44-5.518.722-8.268.333-3.249,1.316-14.694,1.667-17.938.156-1.451-.073-1.785-1.336-1.95-2.786-.366-5.581-.464-8.369-1a65.168,65.168,0,0,1-9.765-2.836c-1.553-.56-3.07-1.276-4.609-1.9a3.193,3.193,0,0,1-1.838-1.5,1.462,1.462,0,0,1-.053-1.041c.122-.279.516-.617.74-.567a34.981,34.981,0,0,1,6.25,2.052,49.339,49.339,0,0,0,18.414,3.916c1.2.033,1.331-.1,1.566-1.754,1.038-7.315,2.039-14.64,3.063-21.96.12-.864.254-1.73.455-2.568a.99.99,0,0,1,1.248-.83,1.015,1.015,0,0,1,.754,1.079,20.856,20.856,0,0,1-.147,3.014c-.67,5.1-1.39,10.179-2.068,15.274q-.445,3.348-.79,6.722a1.059,1.059,0,0,0,.956,1.252,1.3,1.3,0,0,0,.323.024c4.719-.421,9.463-.324,14.19-.5C506.441,466.174,507.829,465.994,509.223,465.951Z" fill="#e0c241"/>
      <path id="Path_153" data-name="Path 153" d="M506.121,486.14c.726-.739,1.513-1.414,2.251-2.142a5.711,5.711,0,0,1,2.635-1.572c2.033-.507,3.339.29,3.7,2.331.227,1.3.369,2.612.536,3.922.371,2.912,2.619,3.344,4.523,2.871a20.906,20.906,0,0,0,6.655-3.025,34.95,34.95,0,0,0,4.284-3.456c1.317-1.231,2.406-2.65,3.745-3.85a1.452,1.452,0,0,1,.686-.407c2.324-.421.016,3.142-.361,3.638a24.46,24.46,0,0,1-4.106,3.944,37.373,37.373,0,0,1-7.3,4.3,12.741,12.741,0,0,1-4.887,1.475,4.943,4.943,0,0,1-5.478-4.5,16.232,16.232,0,0,1-.482-3.739,1.009,1.009,0,0,0-1.629-.83,17.866,17.866,0,0,0-3.931,3.2,36.979,36.979,0,0,0-5.282,6.245,3.9,3.9,0,0,1-.546.642.95.95,0,0,1-1,.334,1.335,1.335,0,0,1-.8-1.35c.129-.449.348-.873.506-1.316,1.971-5.572,3.227-11.338,4.681-17.057.655-2.583,1.374-5.209,2.255-7.747.448-1.289.941-2.564,1.491-3.814a21.926,21.926,0,0,1,1.856-3.7c.947-1.357,2.543-2.694,4.282-1.939,2.09.906,2.458,3.374,2.053,5.375a24.035,24.035,0,0,1-2.416,6.041,58.587,58.587,0,0,1-3.345,5.609c-2.357,3.531-5.474,6.468-6.776,10.613-.154.488-.937,2.951-1.074,3.386C503.534,488.987,505.446,486.825,506.121,486.14Zm7.619-25.388c-1.247-.5-2.083,1.255-2.615,2.1a21.623,21.623,0,0,0-1.82,3.706c-1.054,2.732-1.719,5.615-2.517,8.424a10.661,10.661,0,0,0-.487,2.194c-.024.456.244.56.6.321a10.111,10.111,0,0,0,1.906-2.32,30.908,30.908,0,0,0,5.786-11.12,6.661,6.661,0,0,0,.228-1.391A1.781,1.781,0,0,0,513.74,460.752Z" fill="#e0c241"/>
      <path id="Path_154" data-name="Path 154" d="M540.641,486.738a11.039,11.039,0,0,1-2.518,2.236,3.521,3.521,0,0,1-2.116.655,2.715,2.715,0,0,1-3.107-2.858,9.323,9.323,0,0,1,7.539-9.279c1.148-.32,2.392-.223,3.493-.825.368-.2,1,.311.967.756a6.654,6.654,0,0,1-.253,1.359,12.375,12.375,0,0,0-.371,3.918,3.068,3.068,0,0,0,2.668,3.159,6.392,6.392,0,0,0,3.345-.1,12.651,12.651,0,0,0,4.992-2.542,57.476,57.476,0,0,0,6.751-6.244,2.585,2.585,0,0,1,.831-.733.885.885,0,0,1,1.029.147.993.993,0,0,1,.2.581,3.061,3.061,0,0,1-.559,1.9,15.944,15.944,0,0,1-2.794,2.659c-1.664,1.524-3.441,2.925-5.2,4.34a13.57,13.57,0,0,1-6.736,2.647,6.737,6.737,0,0,1-5.475-1.666c-.5-.407-.82-1.033-1.489-1.232C541.2,485.74,540.956,486.284,540.641,486.738Zm.256-7.151a7.179,7.179,0,0,0-5.489,6.384.977.977,0,0,0,1.426,1.082,3.464,3.464,0,0,0,1.209-.69A14.931,14.931,0,0,0,541.576,481a2.709,2.709,0,0,0,.1-.632A.684.684,0,0,0,540.9,479.587Z" fill="#e0c241"/>
      <path id="Path_155" data-name="Path 155" d="M565.582,484.548c2.735-1.852,5.474-3.7,8.246-5.493a18.216,18.216,0,0,1,2.995-1.564c1.672-.681,2.836.074,2.891,1.826a12.658,12.658,0,0,1-.146,2.25,7.73,7.73,0,0,0,.063,2.531,1.63,1.63,0,0,0,2.458,1.414,53.043,53.043,0,0,0,10.509-5.371c2.812-1.87,5.324-3.99,8.461-5.332a2.436,2.436,0,0,1,.991-.259.788.788,0,0,1,.59,1.387,2.659,2.659,0,0,1-.786.516q-1.026.51-2.053,1.019a75.656,75.656,0,0,0-7.162,4.535c-3.4,2.186-6.8,4.619-10.754,5.705-1.582.435-2.98.123-3.722-1.416a7.3,7.3,0,0,1-.782-3.834c.042-.468.144-.933.186-1.4.127-1.4-.236-1.646-1.62-1.019-.856.387-1.683.841-2.5,1.308-2.954,1.683-5.565,3.867-8.363,5.777a8.031,8.031,0,0,1-2.718,1.453,2.027,2.027,0,0,1-2.565-2.4,5.128,5.128,0,0,1,.334-1.073,59.082,59.082,0,0,0,2.62-9.015,2.575,2.575,0,0,1,.359-.975.878.878,0,0,1,.9-.388c.477.135.629.73.654,1.225.139,2.773-1.079,5.346-1.838,7.947-.279.957-.825,2.1.554,1.946A6.175,6.175,0,0,0,565.582,484.548Z" fill="#e0c241"/>
      <path id="Path_156" data-name="Path 156" d="M603.111,478.432a.92.92,0,0,0,.429-.238c.868-.752,1.614-1.615,2.521-2.33a29.1,29.1,0,0,1,2.9-1.99,15.189,15.189,0,0,1,3.817-1.809,9.058,9.058,0,0,1,3.126-.3,2.379,2.379,0,0,1,1.6.585,1.758,1.758,0,0,1,.278,1.687,9.3,9.3,0,0,1-4.172,5.106,15.3,15.3,0,0,1-2.268,1.179c-.392.164-.791.317-1.194.456-.188.065-.36.145-.544.221-.076.031-.607.192-.618.256-.133.738.373,1.2.932,1.572a8.07,8.07,0,0,0,3.637,1.416,7.915,7.915,0,0,0,3.951-.656l.243-.108a17.807,17.807,0,0,0,6.539-5.275c.809-1.024,1.674-2,2.522-2.993.745-.871,1.654-2.456,2.692-2.985a1.141,1.141,0,0,1,1.32.148,1.125,1.125,0,0,1,.272.747c.019.933-.941,1.471-1.479,2.118-.736.883-1.459,1.776-2.2,2.65a51,51,0,0,1-4.316,4.6,16.968,16.968,0,0,1-6.813,3.866,8.424,8.424,0,0,1-6.275-.753,10.206,10.206,0,0,1-4.135-3.339,3.984,3.984,0,0,0-.783-.8.965.965,0,0,0-1.494.118c-.832.9-1.61,1.848-2.437,2.75a13.543,13.543,0,0,1-1.428,1.346.921.921,0,0,1-1.067-.01,1.068,1.068,0,0,1-.547-1.194,7.9,7.9,0,0,1,.5-1.317,67.323,67.323,0,0,0,2.762-8.44c.722-2.554,1.487-5.111,2.085-7.7,1.215-5.248,2.759-10.971,5.317-15.738.9-1.679,2.964-4.013,5.121-2.842a3.187,3.187,0,0,1,1.634,3.343,10.831,10.831,0,0,1-.613,2.453,42.7,42.7,0,0,1-6.68,12.071,30.829,30.829,0,0,0-3.979,6.62,33.281,33.281,0,0,0-1.411,4.385,1.588,1.588,0,0,0-.05.937.238.238,0,0,0,.306.181Zm3.828-13.94a1.109,1.109,0,0,0,.5-.423,46.449,46.449,0,0,0,5.874-10.838,4,4,0,0,0,.158-2.217.862.862,0,0,0-1.275-.618c-1.9,1.026-2.748,3.572-3.355,5.494-.776,2.459-1.534,4.965-2.207,7.453a1.351,1.351,0,0,0,.1,1.083.182.182,0,0,0,.081.077A.174.174,0,0,0,606.939,464.492Zm5.627,9.888a18.214,18.214,0,0,0-1.791.864,17.588,17.588,0,0,0-3.233,2.3c-.291.261-.749.527-.8.951a.73.73,0,0,0,.569.725,2.488,2.488,0,0,0,1.357-.113c1.045-.4,2.053-.891,3.076-1.348a8.132,8.132,0,0,0,3.509-3.091.639.639,0,0,0,.111-.252.406.406,0,0,0-.082-.28.771.771,0,0,0-.542-.3,1.942,1.942,0,0,0-.4-.014A5.879,5.879,0,0,0,612.566,474.38Z" fill="#e0c241"/>
      <path id="Path_157" data-name="Path 157" d="M663.211,476.887a13.031,13.031,0,0,1-4.782,2.335,3.3,3.3,0,0,1-1.954.034,3.529,3.529,0,0,1-1.851-3.413,15.085,15.085,0,0,1,3.059-6.383.838.838,0,0,1,1.391.836c-.24.714-.56,1.4-.812,2.108a28.121,28.121,0,0,0-1.243,2.943c-.094,1.253.756,1.816,1.96,1.434a14.385,14.385,0,0,0,5.486-3.487,26.129,26.129,0,0,0,2.189-2.442c.453-.561.967-1.685,1.66-1.931a1.211,1.211,0,0,1,1.079.025c.4.237.372.632.3,1-.124.646-.311,1.279-.438,1.925q-.937,4.7-1.856,9.415c-.053.268-.151.554.106.795.657.053.974-.472,1.308-.875,3.927-4.762,9.391-9.162,14.019-13.194a13.483,13.483,0,0,1,2.122-1.384.935.935,0,0,1,1.052.144c1.562,1.165-.891,2.569-1.664,3.116a81.448,81.448,0,0,0-15.754,14.868,13.369,13.369,0,0,0-3.057,6.233,50.242,50.242,0,0,1-2.9,11.009c-.918,2.151-4.589,4.515-5.532.96a4.673,4.673,0,0,1,.26-2.571,32.4,32.4,0,0,1,4.328-8.8c2.081-2.945,2.794-6.346,3.467-9.709a43.976,43.976,0,0,0,1.215-6.354,6.316,6.316,0,0,0-.022-1C666.316,474.286,663.4,476.742,663.211,476.887Zm-2.481,20.647c-.645,1.368-1.509,2.557-1.242,4.155.019.107.06.234.166.257a.253.253,0,0,0,.186-.055,3.3,3.3,0,0,0,1.2-2.085c.194-.756.833-2.348.264-2.995A2.451,2.451,0,0,0,660.73,497.534Z" fill="#e0c241"/>
      <path id="Path_158" data-name="Path 158" d="M693.367,472.976a13.125,13.125,0,0,0-1.963,2.379,6.919,6.919,0,0,1-2.232,1.695,3.988,3.988,0,0,1-5.683-2.354c-.774-2.425.765-5.9,2.331-7.712a4.43,4.43,0,0,1,5.269-1.517,3.887,3.887,0,0,0,.782.316c1.963.157,2.87,1.175,2.714,3.16-.052.666.434,1,1,1.2a4.121,4.121,0,0,0,2.225.062,11.745,11.745,0,0,0,4.864-2.152c1.9-1.446,3.877-2.534,5.459-4.381a1.326,1.326,0,0,1,.816-.573.79.79,0,0,1,.733.483,1.424,1.424,0,0,1,.045.917,4.894,4.894,0,0,1-1.487,2.158l-1.715,1.71a15.874,15.874,0,0,1-3.375,2.067,22.271,22.271,0,0,1-3.756,1.786c-.881.313-1.8.516-2.7.771C695.556,473.2,694.339,472.229,693.367,472.976Zm-3.189-4.33a1.214,1.214,0,0,0-.465-1.162,1.154,1.154,0,0,0-1.02.061,4.264,4.264,0,0,0-1.618,1.475,8.758,8.758,0,0,0-1.474,3.537,2.055,2.055,0,0,0,2.874,2.389,4.7,4.7,0,0,0,2.137-1.88,2.074,2.074,0,0,0,.466-1.735,7.734,7.734,0,0,0-.728-1.218,1.747,1.747,0,0,1-.2-.973C690.156,468.986,690.17,468.826,690.178,468.646Z" fill="#e0c241"/>
      <path id="Path_159" data-name="Path 159" d="M714.005,472.4c-1.9,1.55-6.488,3.992-7.943.654-1.017-2.334.645-7.545,2.718-9.21a2.006,2.006,0,0,1,.781-.283c.421-.1,1,.507.812.871-.97,1.858-2.821,4.447-2.424,6.659.31,1.726,2.092,1.365,3.266.769a16.429,16.429,0,0,0,6.478-6.78,4.758,4.758,0,0,1,1.068-1.278.891.891,0,0,1,.781-.085.832.832,0,0,1,.46.6c-.019.746-.144,1.488-.221,2.231a3.113,3.113,0,0,0,3.224,3.7c4.523.228,7.466-4.362,10.622-6.939a2.262,2.262,0,0,1,1.065-.581.8.8,0,0,1,.921.6,1.143,1.143,0,0,1-.291.728,33.75,33.75,0,0,1-6.052,6.19,11.693,11.693,0,0,1-5.1,2.274,5.167,5.167,0,0,1-5.741-1.977c-.331-.448-.676-.885-1.022-1.339C717.325,469.1,714.312,472.146,714.005,472.4Z" fill="#e0c241"/>
      <path id="Path_160" data-name="Path 160" d="M762.54,470.4a5.6,5.6,0,0,1,.14-1.264c.321-2.233,1.408-2.713,3.221-1.42a1.841,1.841,0,0,1,.452.45c.58.851-.056,3.534-.976,4.137a1.351,1.351,0,0,1-.3.1A2.528,2.528,0,0,1,762.54,470.4Zm7.788-37.663a40.662,40.662,0,0,0-1.834,6.845c-.887,6.07-1.488,12.166-1.9,18.282a25.83,25.83,0,0,0,.116,2.9,2.7,2.7,0,0,1-.373,1.536.976.976,0,0,1-1.607.105,1.892,1.892,0,0,1-.47-1.486c.334-3.636.691-7.271,1.027-10.906.219-2.356.411-4.712.624-7.068A35.661,35.661,0,0,1,768.442,432a2.969,2.969,0,0,1,.67-1.055,1.341,1.341,0,0,1,.9-.127c.179.018.34.228.5.346A2.715,2.715,0,0,1,770.328,432.74Z" fill="#e0c241"/>
    </g>
  </g>
</svg>
