<svg xmlns="http://www.w3.org/2000/svg" width="64.695" height="30.335" viewBox="0 0 64.695 30.335">
  <g id="New_" data-name="New " transform="translate(-550.54 -500.319)" style="isolation: isolate">
    <g id="Group_107" data-name="Group 107" style="isolation: isolate">
      <path id="Path_161" data-name="Path 161" d="M554.586,526.268c3.784-4.677,6.817-10.008,11.239-14.087a5.829,5.829,0,0,1,1.509-1.094c2.7-1.214,2.558,1.574,2.054,3.255q-1.167,3.894-2.657,7.684c-.392,1-2.831,4.972-1.11,5.753a1.991,1.991,0,0,0,1.435-.049,13.235,13.235,0,0,0,3.66-2.164,71.663,71.663,0,0,0,6.918-5.626,2.262,2.262,0,0,1,.817-.583.746.746,0,0,1,.887.277c.22.422-.167.892-.521,1.209a64.834,64.834,0,0,1-10.269,7.933c-1.479.863-3.525,1.569-4.745-.1-1.454-1.993.587-4.849,1.4-6.71q1.066-2.441,1.922-4.968c.244-.724,1.489-3.227,1.114-3.967-.092-.18-.359-.142-.548-.068-2.162.85-3.266,2.6-4.564,4.4-3.108,4.295-6.356,8.988-10.19,12.664a1.852,1.852,0,0,1-1.076.627,1.257,1.257,0,0,1-1.168-.827,2.955,2.955,0,0,1-.108-1.51,17.368,17.368,0,0,1,.965-3.581c1.167-3.272,2.562-6.458,3.985-9.628q1.452-3.238,2.947-6.457c.113-.242.253-.509.508-.588.354-.111.716.237.767.6a1.937,1.937,0,0,1-.266,1.061c-1.295,2.761-2.6,5.517-3.835,8.306a57.265,57.265,0,0,0-3.141,8.447,2.427,2.427,0,0,0,.017,1.821A9.563,9.563,0,0,0,554.586,526.268Z" fill="#e0c241"/>
      <path id="Path_162" data-name="Path 162" d="M580.236,524.091a6.312,6.312,0,0,0,4.715-.377,20.326,20.326,0,0,0,3.254-2.144c.519-.416,1.027-.857,1.526-1.3.413-.365.827-.884,1.4-.987a.49.49,0,0,1,.467.117c.149.178.051.447-.068.647a12.8,12.8,0,0,1-3.641,3.26,22.142,22.142,0,0,1-2.577,1.682,6.99,6.99,0,0,1-5.026.638,4.224,4.224,0,0,1-2.724-1.891,2.732,2.732,0,0,1,.347-3.426,3.981,3.981,0,0,1,2.347-1.34,2.08,2.08,0,0,1,1.266.165,1.212,1.212,0,0,1,.639,1.628,4.1,4.1,0,0,1-1.5,1.871c-.4.259-.905.389-1.149.853A.92.92,0,0,0,580.236,524.091Zm.025-2.64a2.2,2.2,0,0,0,.547-.571.525.525,0,0,0,.055-.444.48.48,0,0,0-.381-.191,2.072,2.072,0,0,0-1.9,1.255.712.712,0,0,0,.083.94C579.185,522.121,579.737,521.807,580.261,521.451Z" fill="#e0c241"/>
      <path id="Path_163" data-name="Path 163" d="M592.2,524.366a1.585,1.585,0,0,1-1.021-.915c-.608-1.1-1.1-3.738-.488-4.945a.446.446,0,0,1,.556-.2c.156.044.307.124.331.31.12.956-.01,2.926.473,3.794,1.07,1.924,3.4-3.329,3.9-3.967a.591.591,0,0,1,.741-.13.478.478,0,0,1,.255.538,3.242,3.242,0,0,0,.713,2.891,2.513,2.513,0,0,0,1.156.746c2.318.626,3.408-3.479,4.125-4.933a.718.718,0,0,1,1.2,0c.206.369-.031.76.283,1.138a2.171,2.171,0,0,0,.742.522,1.673,1.673,0,0,0,.516.174,1.524,1.524,0,0,0,.78-.151,12.4,12.4,0,0,0,2.761-2.157,1.065,1.065,0,0,1,.771-.326c1.616.227-1.219,2.67-1.566,2.92a4.165,4.165,0,0,1-.952.557,3.49,3.49,0,0,1-.962.182,4.632,4.632,0,0,1-2.444-.3c-1.04-.539-1.365,1.138-1.731,1.743-.758,1.254-2.526,2.394-4.038,2a3.067,3.067,0,0,1-1.494-1.036c-.074-.083-1.011-1.376-1.105-1.273C594.928,522.39,593.575,524.621,592.2,524.366Z" fill="#e0c241"/>
      <path id="Path_164" data-name="Path 164" d="M610.621,523.064a3.3,3.3,0,0,1,.08-.726c.184-1.281.808-1.558,1.849-.814a1.045,1.045,0,0,1,.26.258,2.441,2.441,0,0,1-.56,2.376.738.738,0,0,1-.172.056A1.451,1.451,0,0,1,610.621,523.064Zm4.472-21.63a23.386,23.386,0,0,0-1.052,3.931c-.51,3.488-.855,6.988-1.092,10.5a15.205,15.205,0,0,0,.066,1.663,1.526,1.526,0,0,1-.214.882.56.56,0,0,1-.922.062,1.091,1.091,0,0,1-.27-.855c.192-2.088.4-4.175.59-6.264.125-1.352.235-2.706.357-4.058a20.491,20.491,0,0,1,1.454-6.288,1.7,1.7,0,0,1,.386-.606.768.768,0,0,1,.518-.073c.1.011.2.13.289.2A1.549,1.549,0,0,1,615.093,501.434Z" fill="#e0c241"/>
    </g>
  </g>
</svg>
