<svg xmlns="http://www.w3.org/2000/svg" width="35.108" height="43.475" viewBox="0 0 35.108 43.475">
  <g id="Group_111" data-name="Group 111" transform="translate(-297.285 -41.514)">
    <g id="Group_49" data-name="Group 49">
      <g id="Group_52" data-name="Group 52">
        <g id="Ellipse_2" data-name="Ellipse 2">
          <circle id="Ellipse_58" data-name="Ellipse 58" cx="2.615" cy="2.615" r="2.615" transform="translate(297.285 62.462)" fill="none"/>
          <circle id="Ellipse_59" data-name="Ellipse 59" cx="2.114" cy="2.114" r="2.114" transform="translate(297.785 62.962)" fill="none" stroke="#001b43" stroke-miterlimit="4.001" stroke-width="1"/>
        </g>
        <g id="Group_51" data-name="Group 51">
          <g id="Ellipse_2-2" data-name="Ellipse 2-2">
            <circle id="Ellipse_60" data-name="Ellipse 60" cx="2.614" cy="2.614" r="2.614" transform="translate(312.188 41.514)" fill="none"/>
            <circle id="Ellipse_61" data-name="Ellipse 61" cx="2.114" cy="2.114" r="2.114" transform="translate(312.688 42.014)" fill="none" stroke="#001b43" stroke-width="1"/>
          </g>
        </g>
        <path id="Path_19" data-name="Path 19" d="M302.425,61.419l9.732-13.908" fill="none" stroke="#001b43" stroke-linecap="round" stroke-miterlimit="4.001" stroke-width="1"/>
      </g>
      <g id="Group_53" data-name="Group 53">
        <g id="Ellipse_2-3" data-name="Ellipse 2-3">
          <circle id="Ellipse_62" data-name="Ellipse 62" cx="2.615" cy="2.615" r="2.615" transform="translate(327.165 62.462)" fill="none"/>
          <circle id="Ellipse_63" data-name="Ellipse 63" cx="2.114" cy="2.114" r="2.114" transform="translate(327.665 62.962)" fill="none" stroke="#001b43" stroke-miterlimit="4.001" stroke-width="1"/>
        </g>
        <path id="Path_19-2" data-name="Path 19-2" d="M327.332,61.554,317.6,47.646" fill="none" stroke="#001b43" stroke-linecap="round" stroke-miterlimit="4.001" stroke-width="1"/>
      </g>
    </g>
    <g id="Go_up" data-name="Go up" style="isolation: isolate">
      <g id="Group_110" data-name="Group 110" style="isolation: isolate">
        <path id="Path_165" data-name="Path 165" d="M305.76,79.132h3.059v.08a4.005,4.005,0,0,1-.98,2.759,3.662,3.662,0,0,1-4.787-.021,3.572,3.572,0,0,1-.989-2.568,3.4,3.4,0,0,1,.98-2.479,3.555,3.555,0,0,1,2.628-1.019,3.236,3.236,0,0,1,1.539.349,3.166,3.166,0,0,1,1.25,1.22l-1.13.61a1.819,1.819,0,0,0-.78-.79,2.182,2.182,0,0,0-.939-.21,2.25,2.25,0,0,0-1.539.59,2.481,2.481,0,0,0-.67,1.759,2.268,2.268,0,0,0,.659,1.689,2.052,2.052,0,0,0,1.48.57,2.223,2.223,0,0,0,1.309-.4,1.78,1.78,0,0,0,.63-1.019h-1.72Z" fill="#001b43"/>
        <path id="Path_166" data-name="Path 166" d="M314.44,78.843a2.329,2.329,0,0,1,0,3.387,2.812,2.812,0,0,1-3.5,0,2.332,2.332,0,0,1,0-3.387,2.809,2.809,0,0,1,3.5,0Zm-.529,1.7a1.22,1.22,0,1,0-1.22,1.22A1.206,1.206,0,0,0,313.911,80.541Z" fill="#001b43"/>
        <path id="Path_167" data-name="Path 167" d="M320.841,78.373v2.448a.975.975,0,0,0,.261.76.982.982,0,0,0,1.239,0,.974.974,0,0,0,.26-.76V78.373h1.219v2.648a1.639,1.639,0,0,1-.529,1.33,2.763,2.763,0,0,1-3.139,0,1.639,1.639,0,0,1-.529-1.33V78.373Z" fill="#001b43"/>
        <path id="Path_168" data-name="Path 168" d="M326.792,84.989h-1.22V78.373h1.22v.56a1.642,1.642,0,0,1,1.409-.7,2.065,2.065,0,0,1,1.479.581,2.592,2.592,0,0,1-.03,3.467,2.12,2.12,0,0,1-1.469.56,1.64,1.64,0,0,1-1.389-.7Zm.29-5.387a1.145,1.145,0,0,0-.41.929,1.231,1.231,0,0,0,.4.94,1.19,1.19,0,0,0,.8.29,1.153,1.153,0,0,0,.819-.31,1.264,1.264,0,0,0,.38-.92,1.306,1.306,0,0,0-.369-.909,1.274,1.274,0,0,0-.83-.309A1.1,1.1,0,0,0,327.082,79.6Z" fill="#001b43"/>
      </g>
    </g>
  </g>
</svg>
