<svg xmlns="http://www.w3.org/2000/svg" width="322.821" height="110.308" viewBox="0 0 322.821 110.308">
  <g id="Group_35" data-name="Group 35" transform="translate(-68.966 -420.343)">
    <g id="good_time_" data-name="good time " style="isolation: isolate">
      <g id="Group_102" data-name="Group 102" style="isolation: isolate">
        <path id="Path_133" data-name="Path 133" d="M129.921,507.463c3.152-3.027,6.921-5.183,10.543-7.553,2.127-1.39,4.2-2.87,6.318-4.272a24.855,24.855,0,0,0,3.5-2.853,5.22,5.22,0,0,1,1.063-.906,1.164,1.164,0,0,1,1.538.206,1.244,1.244,0,0,1,.081,1.566,5.133,5.133,0,0,1-1.171,1.2c-2.744,2.326-5.88,4.078-8.824,6.109-2.634,1.818-5.323,3.56-7.988,5.337a2.53,2.53,0,0,0-.24.148c-2.413,2.1-4.925,4.08-7.182,6.362a13.7,13.7,0,0,0-3.154,5.276c-.9,2.578-1.733,5.176-2.555,7.779a10.347,10.347,0,0,1-1.836,3.477,5.537,5.537,0,0,1-1,.978,1.731,1.731,0,0,1-2.312-.238c-2.066-2.23-.664-5.392.453-7.759a31.632,31.632,0,0,1,2.924-5c1.142-1.585,2.647-2.882,3.717-4.508a21.479,21.479,0,0,0,2.134-4.326c.59-1.586,1.1-3.2,1.6-4.821a1.063,1.063,0,0,0-.139-.8.754.754,0,0,0-1.011-.166c-.768.36-1.52.75-2.275,1.135a5.19,5.19,0,0,1-3.922.122,3.231,3.231,0,0,1-2.076-2.047,3.442,3.442,0,0,1,.069-1.865,9.654,9.654,0,0,1,3.4-4.626c1.726-1.276,4.228-1.474,5.719.3a1.16,1.16,0,0,1,.175,1.54.865.865,0,0,1-1.441.112,1.733,1.733,0,0,0-2.084-.275,5.435,5.435,0,0,0-3.129,2.7,1.351,1.351,0,0,0,1.175,2.027,4.339,4.339,0,0,0,2.655-.8,12.2,12.2,0,0,0,3.326-3.029c.6-.841,1.176-1.7,1.809-2.524a.969.969,0,0,1,1.211-.444c1.3.57.415,2.25.088,3.16a51.134,51.134,0,0,0-1.48,5.268c-.214.891-.425,1.782-.658,2.666-.115.443-.235.882-.363,1.322-.017.057-.172,1.1-.143,1.085A11.946,11.946,0,0,0,129.921,507.463Zm-12.14,19.42a.7.7,0,0,0-.056.291.437.437,0,0,0,.444.36c.849-.011,1.436-2.117,1.67-2.734a20.925,20.925,0,0,0,1.087-3.7A14.508,14.508,0,0,0,117.781,526.883Z" fill="#e0c241"/>
        <path id="Path_134" data-name="Path 134" d="M157.856,500.118a13.126,13.126,0,0,0-1.963,2.379,6.906,6.906,0,0,1-2.232,1.694,3.987,3.987,0,0,1-5.683-2.353c-.772-2.426.765-5.9,2.332-7.711a4.429,4.429,0,0,1,5.269-1.519,3.88,3.88,0,0,0,.781.317c1.964.158,2.87,1.176,2.715,3.16-.053.667.434,1,1,1.2a4.091,4.091,0,0,0,2.225.063,11.742,11.742,0,0,0,4.863-2.152c1.9-1.446,3.877-2.535,5.46-4.381a1.323,1.323,0,0,1,.816-.572.788.788,0,0,1,.733.482,1.431,1.431,0,0,1,.045.917,4.88,4.88,0,0,1-1.488,2.158l-1.715,1.711a15.884,15.884,0,0,1-3.374,2.065,22.192,22.192,0,0,1-3.756,1.786c-.881.315-1.8.517-2.7.772C160.046,500.348,158.83,499.37,157.856,500.118Zm-3.187-4.328a1.219,1.219,0,0,0-.467-1.164,1.154,1.154,0,0,0-1.02.061,4.277,4.277,0,0,0-1.618,1.474,8.77,8.77,0,0,0-1.474,3.537,2.057,2.057,0,0,0,2.874,2.392,4.7,4.7,0,0,0,2.138-1.882,2.081,2.081,0,0,0,.466-1.734,7.8,7.8,0,0,0-.729-1.219,1.757,1.757,0,0,1-.2-.973C154.645,496.128,154.66,495.968,154.669,495.79Z" fill="#e0c241"/>
        <path id="Path_135" data-name="Path 135" d="M179.389,498.237a13.162,13.162,0,0,0-1.963,2.379,6.929,6.929,0,0,1-2.231,1.7,3.989,3.989,0,0,1-5.684-2.354c-.772-2.426.765-5.9,2.332-7.711a4.428,4.428,0,0,1,5.269-1.518,3.985,3.985,0,0,0,.781.316c1.964.158,2.87,1.175,2.715,3.16-.053.666.435,1,1,1.2a4.1,4.1,0,0,0,2.225.063,11.741,11.741,0,0,0,4.863-2.151c1.9-1.447,3.877-2.536,5.46-4.382a1.328,1.328,0,0,1,.816-.572.789.789,0,0,1,.733.482,1.438,1.438,0,0,1,.046.917,4.89,4.89,0,0,1-1.489,2.158q-.858.855-1.714,1.711a15.885,15.885,0,0,1-3.374,2.065,22.272,22.272,0,0,1-3.756,1.787c-.882.314-1.8.516-2.7.771C181.579,498.466,180.363,497.489,179.389,498.237Zm-3.187-4.328a1.219,1.219,0,0,0-.467-1.164,1.154,1.154,0,0,0-1.02.061,4.285,4.285,0,0,0-1.618,1.474,8.768,8.768,0,0,0-1.473,3.537,2.057,2.057,0,0,0,2.874,2.392,4.7,4.7,0,0,0,2.137-1.882,2.076,2.076,0,0,0,.466-1.734,7.869,7.869,0,0,0-.728-1.219,1.738,1.738,0,0,1-.2-.973C176.178,494.247,176.193,494.087,176.2,493.909Z" fill="#e0c241"/>
        <path id="Path_136" data-name="Path 136" d="M198.384,494.279c-1.217,1.039-2.425,2.091-3.645,3.129a8.82,8.82,0,0,1-3.825,1.732,2.6,2.6,0,0,1-2.845-1.76,2.546,2.546,0,0,1,.3-1.6c1.187-2.675,3.017-5.585,5.864-6.669,1.386-.528,2.709-.659,3.872.645.609.681,1.076.536,1.642-.068a4.006,4.006,0,0,0,.983-2.292,117.261,117.261,0,0,1,3.4-15.148c.487-1.718,1.058-3.418,1.694-5.087a9.3,9.3,0,0,1,1.289-2.181,3.1,3.1,0,0,1,2.138-1.243c1.505-.2,2.377.3,2.726,1.779a9.165,9.165,0,0,1,.194,3.635,36.267,36.267,0,0,1-6.782,16.275,18.658,18.658,0,0,0-3.633,9.293,19.7,19.7,0,0,0-.154,1.97.963.963,0,0,0,1.125.976c3.387-.389,5.837-2.5,8.514-4.34.755-.518,1.511-1.04,2.266-1.558a19.111,19.111,0,0,1,1.881-1.185,9.262,9.262,0,0,1,2.215-.819,2.9,2.9,0,0,1,1.407-.051c1.855.512.322,1.745-.648,2.063-5.684,1.867-9.729,6.973-15.631,8.351a2.879,2.879,0,0,1-3.484-3c-.008-.311.609-3.513.324-3.543C198.949,493.517,198.722,493.991,198.384,494.279Zm-1.25-2.933a1.7,1.7,0,0,0-2.276-.41,6.877,6.877,0,0,0-2.8,2.366c-.37.525-1.945,2.754-1.188,3.28a1.021,1.021,0,0,0,.729.121,4.143,4.143,0,0,0,1.681-.746,17.727,17.727,0,0,0,3.986-3.6c.1-.129.1-.352.142-.533A2.455,2.455,0,0,0,197.134,491.346Zm7.389-8.34a39.538,39.538,0,0,0,3.782-7.647c.947-2.61,2.056-5.744,1.569-8.547a.835.835,0,0,0-.109-.331.6.6,0,0,0-.715-.157,2.439,2.439,0,0,0-1.085,1.268,31.49,31.49,0,0,0-1.29,3.426c-1.177,4.051-2.183,8.149-3.121,12.827C203.307,484.771,204.384,483.227,204.523,483.006Z" fill="#e0c241"/>
        <path id="Path_137" data-name="Path 137" d="M260.577,471.656c1.017-.085,1.518.15,1.6.715a1.579,1.579,0,0,1-1.637,1.808c-3.587-.228-7.139.413-10.718.4-1.687-.006-1.71.108-2.221,1.886-1.736,6.038-2.276,12.506-3.227,18.7a3.849,3.849,0,0,0,.158,2.436c.964,1.769,3.074.924,4.336.044,4.219-2.94,7.112-7.025,10.3-10.988a1.29,1.29,0,0,1,.637-.512c.475-.113.921.376.954.864a2.507,2.507,0,0,1-.458,1.369,34.126,34.126,0,0,1-7,8.747c-2.927,2.657-6.952,5.78-10.607,2.4a2.914,2.914,0,0,1-.9-2.3,12.937,12.937,0,0,1,.16-1.689c.706-4.269,1.392-8.543,2.153-12.8.4-2.22.946-4.415,1.4-6.625.188-.911-.078-1.279-.978-1.23a72.654,72.654,0,0,1-7.626-.033,2.019,2.019,0,0,1-1.74-.736c-.262-.368-.111-1.078.318-1.154a9.923,9.923,0,0,1,1.673-.182c2.447-.019,4.893,0,7.341-.013,1.441-.01,1.7-.146,2-1.461.475-2.11.838-4.246,1.238-6.372.192-1.018.333-2.046.562-3.056a.736.736,0,0,1,.871-.528.765.765,0,0,1,.715.744,9.083,9.083,0,0,1-.082,1.964c-.4,2.413-.856,4.819-1.264,7.231-.153.893.164,1.261,1.054,1.2q2.817-.2,5.637-.406Q257.9,471.873,260.577,471.656Z" fill="#e0c241"/>
        <path id="Path_138" data-name="Path 138" d="M262.148,493.186c-2.479-1.156-3.347-3.155-3.309-5.713A7.106,7.106,0,0,1,259.916,484a2.681,2.681,0,0,1,.793-.768.986.986,0,0,1,1.068,0,1.039,1.039,0,0,1,.439.975,2.466,2.466,0,0,1-.525,1.276c-1.837,3.25.3,5.39,2.859,5.851a8.482,8.482,0,0,0,4.434-.353,93.3,93.3,0,0,0,18.907-9.682,9.888,9.888,0,0,1,2.681-1.349,2.084,2.084,0,0,1,1.188-.031c2.006.676-1.933,3.208-2.621,3.726a58.619,58.619,0,0,1-5.687,3.207c-2.279,1.353-4.607,2.283-6.971,3.451a70.761,70.761,0,0,1-7.468,3.2,6.242,6.242,0,0,1-2.227.425A8.3,8.3,0,0,1,262.148,493.186Zm4.393-18.133a3.992,3.992,0,0,1-2.4,1.769,1.662,1.662,0,0,1-1.792-.4,2.192,2.192,0,0,1-.19-2.107,3.618,3.618,0,0,1,3.592-1.507,1.8,1.8,0,0,1,1.083,1.36A3.86,3.86,0,0,1,266.541,475.053Z" fill="#e0c241"/>
        <path id="Path_139" data-name="Path 139" d="M295.224,485.811c-1.157.807-2.327,1.606-3.547,2.315a9.219,9.219,0,0,1-2.341.951,1.9,1.9,0,0,1-2.526-2.1c.186-1.7,2.585-6.351,3.618-7.747a.844.844,0,0,1,1.017-.275.934.934,0,0,1,.588,1.138c-.089.454-2.178,3.917-2.309,4.367-.17.575-.847,1.237-.119,1.734.593.4,1.272-.081,1.819-.423,2.158-1.344,4.3-2.715,6.436-4.089a16.914,16.914,0,0,1,4.008-2.049,1.635,1.635,0,0,1,2.208,1.762,9.871,9.871,0,0,1-.459,1.916c-.177.634-.422,1.251-.575,1.89-.191.789.354,1.254,1.161.97a8.463,8.463,0,0,0,1.783-.823c1.264-.817,2.487-1.7,3.724-2.559a45.846,45.846,0,0,1,7.114-4.038c1.464-.67,2.366-.1,2.495,1.513.06.748-.033,1.507.005,2.257.133,2.572,1.527,3.384,3.722,2.114,1.464-.849,2.855-1.824,4.274-2.751,2.792-1.824,4.92-4.33,8.162-5.446a2.307,2.307,0,0,1,1.562-.119.9.9,0,0,1,.5,1.285,1.393,1.393,0,0,1-.573.365c-4.51,1.934-8.172,5.7-12.239,8.394a11.379,11.379,0,0,1-2.8,1.309,3.012,3.012,0,0,1-3.515-1.106,6.2,6.2,0,0,1-1.33-3.071c-.074-.463-.064-.944-.171-1.4a.582.582,0,0,0-.873-.409,37.022,37.022,0,0,0-4.913,2.771c-1.547,1.073-3.113,2.119-4.715,3.105a12.131,12.131,0,0,1-2.541,1.2c-1.874.62-3.134-.322-3.177-2.341a17.907,17.907,0,0,1,.218-2.241c.048-.447.426-.844.07-1.639A44.511,44.511,0,0,0,295.224,485.811Z" fill="#e0c241"/>
        <path id="Path_140" data-name="Path 140" d="M337.885,485.026a10.971,10.971,0,0,0,8.207-.657,35.186,35.186,0,0,0,5.665-3.73c.908-.725,1.791-1.493,2.659-2.261.717-.636,1.44-1.54,2.445-1.718a.859.859,0,0,1,.815.2c.259.311.087.778-.119,1.126-1.378,2.32-4.184,4.128-6.338,5.677a38.648,38.648,0,0,1-4.488,2.927,12.167,12.167,0,0,1-8.752,1.111,7.359,7.359,0,0,1-4.742-3.291,4.761,4.761,0,0,1,.6-5.967,6.948,6.948,0,0,1,4.088-2.333,3.635,3.635,0,0,1,2.2.288,2.111,2.111,0,0,1,1.115,2.834,7.158,7.158,0,0,1-2.61,3.258c-.7.452-1.575.68-2,1.488A1.6,1.6,0,0,0,337.885,485.026Zm.043-4.6a3.792,3.792,0,0,0,.952-.995.916.916,0,0,0,.1-.773.837.837,0,0,0-.664-.334A3.606,3.606,0,0,0,335,480.517a1.235,1.235,0,0,0,.145,1.635C336.056,481.6,337.016,481.049,337.928,480.431Z" fill="#e0c241"/>
        <path id="Path_141" data-name="Path 141" d="M383.754,483.854a5.651,5.651,0,0,1,.14-1.263c.32-2.233,1.407-2.713,3.221-1.42a1.827,1.827,0,0,1,.452.451c.58.85-.057,3.533-.977,4.135a1.2,1.2,0,0,1-.3.1A2.529,2.529,0,0,1,383.754,483.854Zm7.788-37.662a40.668,40.668,0,0,0-1.834,6.845c-.886,6.07-1.487,12.166-1.9,18.282a26.313,26.313,0,0,0,.114,2.9,2.676,2.676,0,0,1-.373,1.536.974.974,0,0,1-1.606.105,1.892,1.892,0,0,1-.47-1.486c.335-3.636.691-7.27,1.027-10.906.218-2.356.411-4.712.624-7.068a35.633,35.633,0,0,1,2.531-10.947,2.97,2.97,0,0,1,.67-1.054,1.334,1.334,0,0,1,.9-.127c.18.017.341.227.5.345A2.708,2.708,0,0,1,391.542,446.192Z" fill="#e0c241"/>
      </g>
    </g>
    <g id="Let_s_have_a_" data-name="Let s have a " style="isolation: isolate">
      <g id="Group_103" data-name="Group 103" style="isolation: isolate">
        <path id="Path_142" data-name="Path 142" d="M74.629,465.1c.492-.2.986-.4,1.485-.582a21.247,21.247,0,0,1,2.953-.876,23.134,23.134,0,0,1,7.419-.144c2.352.276,4.739.977,7.1,1.085a9.727,9.727,0,0,0,6.034-1.8c2.927-2.094,5.6-5.249,7.917-7.943.489-.571.884-1.231,1.419-1.749a1.251,1.251,0,0,1,1.5-.207c.578.324.514.9.338,1.418a3.543,3.543,0,0,1-.6,1.132c-2.706,3.2-5.672,6.957-9.108,9.487a11.454,11.454,0,0,1-10.341,2.1,31.37,31.37,0,0,0-7.158-.917,17.552,17.552,0,0,0-6.29.834,18.421,18.421,0,0,0-5.817,3.53,3.256,3.256,0,0,1-.959.647c-1.1.4-1.741-.708-1.507-1.655a3,3,0,0,1,.245-.593,63.19,63.19,0,0,0,3.433-8.857c.989-3.024,2.137-5.994,3.085-9.03q1.068-3.412,1.812-6.915a17.319,17.319,0,0,0,.474-7.191,3.059,3.059,0,0,0-1.016-1.895,6.956,6.956,0,0,0-1.087-.539,1.529,1.529,0,0,1-.849-.823,1.22,1.22,0,0,1,.935-1.438,2.311,2.311,0,0,1,1.812.459,6.364,6.364,0,0,1,2.415,3,9.943,9.943,0,0,1,.215,4.486,57.832,57.832,0,0,1-2.049,9.7c-.558,2.005-1.217,3.982-1.87,5.958-.244.735-.492,1.467-.739,2.2q-1.023,3.03-2.041,6.059a7.641,7.641,0,0,0-.36,1.47C73.755,465.6,74.308,465.233,74.629,465.1Z" fill="#e0c241"/>
        <path id="Path_143" data-name="Path 143" d="M114.543,460.013a10.964,10.964,0,0,0,8.207-.659,35.131,35.131,0,0,0,5.665-3.728c.907-.727,1.791-1.493,2.659-2.261.717-.636,1.44-1.541,2.444-1.719a.862.862,0,0,1,.816.2c.258.309.087.777-.12,1.126-1.376,2.319-4.185,4.128-6.337,5.676a38.619,38.619,0,0,1-4.489,2.927,12.158,12.158,0,0,1-8.753,1.111,7.35,7.35,0,0,1-4.74-3.291,4.758,4.758,0,0,1,.6-5.966,6.945,6.945,0,0,1,4.088-2.333,3.628,3.628,0,0,1,2.2.288,2.111,2.111,0,0,1,1.114,2.835,7.162,7.162,0,0,1-2.609,3.256c-.7.453-1.576.68-2,1.489A1.608,1.608,0,0,0,114.543,460.013Zm.043-4.6a3.818,3.818,0,0,0,.951-.995.913.913,0,0,0,.1-.772.839.839,0,0,0-.665-.335,3.609,3.609,0,0,0-3.308,2.188,1.236,1.236,0,0,0,.146,1.636C112.713,456.584,113.673,456.034,114.586,455.417Z" fill="#e0c241"/>
        <path id="Path_144" data-name="Path 144" d="M149.442,436.841c1.018-.085,1.519.15,1.6.715a1.58,1.58,0,0,1-1.638,1.808c-3.588-.227-7.139.412-10.718.4-1.686-.006-1.71.109-2.221,1.885-1.736,6.038-2.276,12.506-3.227,18.7a3.861,3.861,0,0,0,.157,2.436c.964,1.769,3.074.925,4.337.046,4.218-2.942,7.112-7.026,10.3-10.989a1.281,1.281,0,0,1,.638-.512c.475-.112.921.377.954.863a2.507,2.507,0,0,1-.458,1.369,34.126,34.126,0,0,1-6.994,8.747c-2.928,2.657-6.954,5.781-10.608,2.4a2.926,2.926,0,0,1-.9-2.3,12.891,12.891,0,0,1,.161-1.688c.705-4.27,1.392-8.542,2.152-12.8.4-2.22.947-4.414,1.4-6.625.188-.909-.078-1.279-.978-1.23a71.859,71.859,0,0,1-7.626-.034,2.021,2.021,0,0,1-1.74-.735c-.262-.368-.11-1.076.318-1.153a9.924,9.924,0,0,1,1.673-.183c2.447-.019,4.893.005,7.341-.014,1.441-.009,1.7-.145,2-1.46.476-2.11.838-4.246,1.238-6.372.193-1.017.332-2.047.562-3.055a.736.736,0,0,1,.87-.53.768.768,0,0,1,.716.745,9.194,9.194,0,0,1-.081,1.963c-.4,2.413-.858,4.821-1.266,7.233-.151.891.165,1.26,1.054,1.2q2.82-.2,5.637-.4Q146.768,437.057,149.442,436.841Z" fill="#e0c241"/>
      </g>
      <g id="Group_104" data-name="Group 104" style="isolation: isolate">
        <path id="Path_145" data-name="Path 145" d="M150.009,440.212a2.589,2.589,0,0,0,1.8-1.585,5.786,5.786,0,0,0,.414-2.847c-.01-.105-.021-.2-.036-.284a1.624,1.624,0,0,0-.082-.28l-2.515.22-.435-4.984,4.891-.427.4,4.594a9.636,9.636,0,0,1-.777,5.077,4.714,4.714,0,0,1-3.476,2.665Z" fill="#e0c241"/>
      </g>
      <g id="Group_105" data-name="Group 105" style="isolation: isolate">
        <path id="Path_146" data-name="Path 146" d="M159.348,458.953c.058.45-.069,1.049.387,1.271.636.31,1-.318,1.4-.666a106.564,106.564,0,0,1,12.9-9.615c1.433-.894,2.946-1.669,4.451-2.447a5.134,5.134,0,0,1,1.607-.481.818.818,0,0,1,.911.519,1.273,1.273,0,0,1-.017.793,2.181,2.181,0,0,1-1.349,1.362c-4.913,1.675-8.958,4.744-12.867,8.021-1.875,1.572-3.658,3.256-5.555,4.8a7.7,7.7,0,0,0-2.9,4.692,13.991,13.991,0,0,1-1.637,4.5,7.015,7.015,0,0,1-2.906,3,1.24,1.24,0,0,1-1.726-.412,3.078,3.078,0,0,1-.288-3.453,19.961,19.961,0,0,1,3.458-5.14,6.974,6.974,0,0,0,1.947-5.918,36.931,36.931,0,0,1-.151-8.418c.306-2.086,1.174-5.2,3.825-5.022a2.9,2.9,0,0,1,2.259,4.393.789.789,0,0,1-.955.414.777.777,0,0,1-.608-.833,1.966,1.966,0,0,1,.028-.279c.143-.6.176-1.177-.611-1.272-.664-.079-.99.435-1.264.945a4.4,4.4,0,0,0-.48,2.189,54.059,54.059,0,0,0,0,5.65C159.262,458.016,159.289,458.485,159.348,458.953Z" fill="#e0c241"/>
        <path id="Path_147" data-name="Path 147" d="M207.152,448.1c.726-.737,1.514-1.413,2.25-2.14a5.7,5.7,0,0,1,2.637-1.573c2.031-.508,3.338.29,3.7,2.331.228,1.3.369,2.612.537,3.921.37,2.914,2.618,3.345,4.524,2.873a20.968,20.968,0,0,0,6.654-3.026,34.848,34.848,0,0,0,4.284-3.457c1.317-1.231,2.405-2.649,3.744-3.849a1.452,1.452,0,0,1,.687-.408c2.323-.419.015,3.143-.361,3.638a24.47,24.47,0,0,1-4.107,3.945,37.313,37.313,0,0,1-7.3,4.3,12.714,12.714,0,0,1-4.888,1.476,4.943,4.943,0,0,1-5.477-4.5,16.283,16.283,0,0,1-.483-3.738,1.008,1.008,0,0,0-1.628-.83,17.815,17.815,0,0,0-3.931,3.2,36.821,36.821,0,0,0-5.281,6.243,4.021,4.021,0,0,1-.547.644.954.954,0,0,1-1,.333,1.336,1.336,0,0,1-.805-1.351c.129-.449.35-.872.507-1.315,1.971-5.572,3.227-11.339,4.68-17.058.657-2.581,1.375-5.208,2.255-7.746.45-1.289.942-2.564,1.493-3.814a21.943,21.943,0,0,1,1.854-3.7c.948-1.357,2.544-2.7,4.282-1.941,2.09.908,2.458,3.374,2.054,5.377a24.046,24.046,0,0,1-2.417,6.04,58.588,58.588,0,0,1-3.345,5.609c-2.357,3.53-5.472,6.468-6.776,10.613-.153.489-.936,2.95-1.073,3.387C204.564,450.945,206.476,448.783,207.152,448.1Zm7.618-25.386c-1.247-.5-2.082,1.254-2.615,2.1a21.686,21.686,0,0,0-1.818,3.706c-1.055,2.732-1.72,5.616-2.518,8.423a10.648,10.648,0,0,0-.487,2.2c-.024.455.244.56.6.32a10.149,10.149,0,0,0,1.9-2.319,30.9,30.9,0,0,0,5.787-11.12,6.814,6.814,0,0,0,.228-1.392A1.779,1.779,0,0,0,214.77,422.711Z" fill="#e0c241"/>
        <path id="Path_148" data-name="Path 148" d="M241.673,448.7a10.98,10.98,0,0,1-2.52,2.236,3.5,3.5,0,0,1-2.115.656,2.716,2.716,0,0,1-3.107-2.857,9.323,9.323,0,0,1,7.538-9.281c1.148-.319,2.393-.223,3.5-.825.368-.2,1,.312.966.757a6.67,6.67,0,0,1-.254,1.359,12.4,12.4,0,0,0-.371,3.918,3.069,3.069,0,0,0,2.669,3.159,6.4,6.4,0,0,0,3.344-.1,12.675,12.675,0,0,0,4.992-2.541,57.57,57.57,0,0,0,6.752-6.244,2.6,2.6,0,0,1,.83-.735.89.89,0,0,1,1.03.147,1.016,1.016,0,0,1,.2.582,3.066,3.066,0,0,1-.561,1.895,15.771,15.771,0,0,1-2.794,2.66c-1.663,1.523-3.44,2.925-5.2,4.341a13.594,13.594,0,0,1-6.735,2.646,6.743,6.743,0,0,1-5.476-1.666c-.5-.406-.818-1.034-1.487-1.233C242.235,447.7,241.986,448.243,241.673,448.7Zm.254-7.15a7.181,7.181,0,0,0-5.489,6.384.977.977,0,0,0,1.427,1.082,3.472,3.472,0,0,0,1.209-.69,14.924,14.924,0,0,0,3.532-5.365,2.8,2.8,0,0,0,.1-.632A.684.684,0,0,0,241.927,441.545Z" fill="#e0c241"/>
        <path id="Path_149" data-name="Path 149" d="M280.169,441.178c-.455-.337-.909-.677-1.383-.983a1.063,1.063,0,0,0-1.517.179c-.61.717-1.176,1.471-1.761,2.209-1.168,1.479-2.32,2.971-3.512,4.431a14.247,14.247,0,0,1-1.566,1.628c-1.945,1.725-3.174,1.451-4.329-.959a14.176,14.176,0,0,1-.7-1.848c-.535-1.7-.877-4.188-1.9-5.7a.907.907,0,0,1,.138-1.276,1.272,1.272,0,0,1,1.344-.059,2.848,2.848,0,0,1,1.4,1.7c.306.892.488,2.545.791,3.436a18.465,18.465,0,0,0,.826,2.1,1.119,1.119,0,0,0,1.681.368,7.557,7.557,0,0,0,1.205-1.186c1.472-1.954,2.908-3.936,4.358-5.906.223-.3.442-.611.675-.907,1.355-1.718,1.885-1.8,3.763-.577.474.31.9.686,1.378.988a4.558,4.558,0,0,0,4.026.608c1.389-.522,2.151-1.988,3.542-2.506a.343.343,0,0,1,.232-.026.333.333,0,0,1,.175.179,2.517,2.517,0,0,1-.46,2.73,7.849,7.849,0,0,1-5.06,2.2A5.274,5.274,0,0,1,280.169,441.178Z" fill="#e0c241"/>
        <path id="Path_150" data-name="Path 150" d="M291.732,444.535a10.961,10.961,0,0,0,8.206-.657,35.186,35.186,0,0,0,5.665-3.73c.907-.725,1.791-1.493,2.659-2.26a5.626,5.626,0,0,1,2.445-1.719.856.856,0,0,1,.815.2c.259.311.088.777-.119,1.126-1.377,2.319-4.185,4.128-6.338,5.677a38.517,38.517,0,0,1-4.488,2.927,12.161,12.161,0,0,1-8.752,1.111,7.353,7.353,0,0,1-4.741-3.291,4.758,4.758,0,0,1,.6-5.967,6.95,6.95,0,0,1,4.088-2.333,3.633,3.633,0,0,1,2.2.288,2.111,2.111,0,0,1,1.114,2.835A7.165,7.165,0,0,1,292.482,442c-.7.452-1.575.68-2,1.488A1.6,1.6,0,0,0,291.732,444.535Zm.042-4.6a3.8,3.8,0,0,0,.951-.994.91.91,0,0,0,.1-.772.833.833,0,0,0-.665-.334,3.608,3.608,0,0,0-3.309,2.186,1.237,1.237,0,0,0,.147,1.636C289.9,441.106,290.862,440.558,291.774,439.939Z" fill="#e0c241"/>
        <path id="Path_151" data-name="Path 151" d="M343.861,439.77a10.953,10.953,0,0,1-2.519,2.235,3.517,3.517,0,0,1-2.115.656,2.715,2.715,0,0,1-3.107-2.857,9.323,9.323,0,0,1,7.539-9.281c1.146-.319,2.392-.223,3.494-.825.367-.2,1,.312.966.757a6.681,6.681,0,0,1-.253,1.359,12.378,12.378,0,0,0-.371,3.918,3.069,3.069,0,0,0,2.669,3.16,6.405,6.405,0,0,0,3.343-.1,12.664,12.664,0,0,0,4.992-2.542A57.486,57.486,0,0,0,365.251,430a2.585,2.585,0,0,1,.831-.733.885.885,0,0,1,1.028.146,1,1,0,0,1,.2.581,3.065,3.065,0,0,1-.561,1.9,15.868,15.868,0,0,1-2.793,2.659c-1.664,1.523-3.441,2.925-5.2,4.341a13.581,13.581,0,0,1-6.735,2.646,6.747,6.747,0,0,1-5.476-1.666c-.5-.407-.819-1.034-1.488-1.232C344.424,438.772,344.175,439.316,343.861,439.77Zm.255-7.151A7.176,7.176,0,0,0,338.628,439a.976.976,0,0,0,1.426,1.082,3.445,3.445,0,0,0,1.208-.688,14.949,14.949,0,0,0,3.534-5.367,2.882,2.882,0,0,0,.1-.631A.684.684,0,0,0,344.116,432.619Z" fill="#e0c241"/>
      </g>
    </g>
  </g>
</svg>
