<svg xmlns="http://www.w3.org/2000/svg" width="327.549" height="234.08" viewBox="0 0 327.549 234.08">
  <g id="Group_34" data-name="Group 34" transform="translate(-464.683 140.577)">
    <g id="WEDDING_INVITATION" data-name="WEDDING INVITATION" style="isolation: isolate">
      <g id="Group_92" data-name="Group 92" style="isolation: isolate">
        <path id="Path_69" data-name="Path 69" d="M501.08-97.8h-6.075l-14.384-41.351h8.555L498.414-111l10.105-28.519h4.464L522.531-111l9.919-28.146h8.556L525.692-97.8h-6.075l-9.052-26.225Z" fill="#f7f7f5"/>
        <path id="Path_70" data-name="Path 70" d="M569.4-132.2H554.524v9.237h14.259v6.945H554.524v11.283H569.4V-97.8H546.464v-41.351H569.4Z" fill="#f7f7f5"/>
        <path id="Path_71" data-name="Path 71" d="M588.623-139.147c5.765,0,10.788.62,15.375,4.029a20.47,20.47,0,0,1,7.935,16.678,19.717,19.717,0,0,1-8.306,16.676c-4.836,3.41-9.363,3.968-15.128,3.968H577.836v-41.351ZM585.9-104.739h2.48c2.046,0,6.509-.124,10.1-2.729a13.449,13.449,0,0,0,5.147-10.972,13.784,13.784,0,0,0-5.084-11.037c-3.348-2.479-7.44-2.727-10.168-2.727H585.9Z" fill="#f7f7f5"/>
        <path id="Path_72" data-name="Path 72" d="M630.783-139.147c5.765,0,10.788.62,15.375,4.029a20.47,20.47,0,0,1,7.935,16.678,19.717,19.717,0,0,1-8.306,16.676c-4.836,3.41-9.363,3.968-15.128,3.968H620v-41.351Zm-2.728,34.408h2.48c2.046,0,6.51-.124,10.105-2.729a13.448,13.448,0,0,0,5.147-10.972,13.783,13.783,0,0,0-5.084-11.037c-3.348-2.479-7.44-2.727-10.168-2.727h-2.48Z" fill="#f7f7f5"/>
        <path id="Path_73" data-name="Path 73" d="M670.215-139.147V-97.8h-8.059v-41.351Z" fill="#f7f7f5"/>
        <path id="Path_74" data-name="Path 74" d="M680.259-97.8v-41.351h5.58l25.17,27.587v-27.587h8.06V-97.8H713.49l-25.171-27.65V-97.8Z" fill="#f7f7f5"/>
        <path id="Path_75" data-name="Path 75" d="M750.07-119.929h18.971v.5c0,2.79-.371,11.47-6.076,17.112-4.277,4.277-9.547,5.455-14.693,5.455s-10.477-1.054-15-5.579c-1.426-1.426-6.138-6.634-6.138-15.934a21.118,21.118,0,0,1,6.077-15.375c3.1-3.162,8.306-6.323,16.3-6.323a20.026,20.026,0,0,1,9.548,2.17,19.469,19.469,0,0,1,7.749,7.563l-7.006,3.782a11.264,11.264,0,0,0-4.835-4.9,13.558,13.558,0,0,0-5.828-1.3,13.978,13.978,0,0,0-9.548,3.658,15.412,15.412,0,0,0-4.153,10.912,14.052,14.052,0,0,0,4.092,10.476,12.716,12.716,0,0,0,9.176,3.534,13.791,13.791,0,0,0,8.121-2.479,11.034,11.034,0,0,0,3.906-6.324H750.07Z" fill="#f7f7f5"/>
      </g>
      <g id="Group_93" data-name="Group 93" style="isolation: isolate">
        <path id="Path_76" data-name="Path 76" d="M501.08-97.8h-6.075l-14.384-41.351h8.555L498.414-111l10.105-28.519h4.464L522.531-111l9.919-28.146h8.556L525.692-97.8h-6.075l-9.052-26.225Z" fill="none" stroke="#001b43" stroke-width="1"/>
        <path id="Path_77" data-name="Path 77" d="M569.4-132.2H554.524v9.237h14.259v6.945H554.524v11.283H569.4V-97.8H546.464v-41.351H569.4Z" fill="none" stroke="#001b43" stroke-width="1"/>
        <path id="Path_78" data-name="Path 78" d="M588.623-139.147c5.765,0,10.788.62,15.375,4.029a20.47,20.47,0,0,1,7.935,16.678,19.717,19.717,0,0,1-8.306,16.676c-4.836,3.41-9.363,3.968-15.128,3.968H577.836v-41.351ZM585.9-104.739h2.48c2.046,0,6.509-.124,10.1-2.729a13.449,13.449,0,0,0,5.147-10.972,13.784,13.784,0,0,0-5.084-11.037c-3.348-2.479-7.44-2.727-10.168-2.727H585.9Z" fill="none" stroke="#001b43" stroke-width="1"/>
        <path id="Path_79" data-name="Path 79" d="M630.783-139.147c5.765,0,10.788.62,15.375,4.029a20.47,20.47,0,0,1,7.935,16.678,19.717,19.717,0,0,1-8.306,16.676c-4.836,3.41-9.363,3.968-15.128,3.968H620v-41.351Zm-2.728,34.408h2.48c2.046,0,6.51-.124,10.105-2.729a13.448,13.448,0,0,0,5.147-10.972,13.783,13.783,0,0,0-5.084-11.037c-3.348-2.479-7.44-2.727-10.168-2.727h-2.48Z" fill="none" stroke="#001b43" stroke-width="1"/>
        <path id="Path_80" data-name="Path 80" d="M670.215-139.147V-97.8h-8.059v-41.351Z" fill="none" stroke="#001b43" stroke-width="1"/>
        <path id="Path_81" data-name="Path 81" d="M680.259-97.8v-41.351h5.58l25.17,27.587v-27.587h8.06V-97.8H713.49l-25.171-27.65V-97.8Z" fill="none" stroke="#001b43" stroke-width="1"/>
        <path id="Path_82" data-name="Path 82" d="M750.07-119.929h18.971v.5c0,2.79-.371,11.47-6.076,17.112-4.277,4.277-9.547,5.455-14.693,5.455s-10.477-1.054-15-5.579c-1.426-1.426-6.138-6.634-6.138-15.934a21.118,21.118,0,0,1,6.077-15.375c3.1-3.162,8.306-6.323,16.3-6.323a20.026,20.026,0,0,1,9.548,2.17,19.469,19.469,0,0,1,7.749,7.563l-7.006,3.782a11.264,11.264,0,0,0-4.835-4.9,13.558,13.558,0,0,0-5.828-1.3,13.978,13.978,0,0,0-9.548,3.658,15.412,15.412,0,0,0-4.153,10.912,14.052,14.052,0,0,0,4.092,10.476,12.716,12.716,0,0,0,9.176,3.534,13.791,13.791,0,0,0,8.121-2.479,11.034,11.034,0,0,0,3.906-6.324H750.07Z" fill="none" stroke="#001b43" stroke-width="1"/>
      </g>
      <g id="Group_94" data-name="Group 94" style="isolation: isolate">
        <path id="Path_83" data-name="Path 83" d="M473.243.853V42.2h-8.06V.853Z" fill="#f7f7f5"/>
        <path id="Path_84" data-name="Path 84" d="M483.287,42.2V.853h5.58l25.17,27.587V.853H522.1V42.2h-5.579l-25.171-27.65V42.2Z" fill="#f7f7f5"/>
        <path id="Path_85" data-name="Path 85" d="M536.359.853l11.035,27.774L558.429.853h8.8L549.75,42.2h-4.836L527.555.853Z" fill="#f7f7f5"/>
        <path id="Path_86" data-name="Path 86" d="M580.751.853V42.2h-8.06V.853Z" fill="#f7f7f5"/>
        <path id="Path_87" data-name="Path 87" d="M603.813,7.8V42.2h-8.059V7.8h-9.3V.853h26.658V7.8Z" fill="#f7f7f5"/>
        <path id="Path_88" data-name="Path 88" d="M640.889,33.524H624.213l-3.659,8.68h-8.741L629.606.853h6.323l17.3,41.351h-8.679Zm-2.356-6.571-5.89-14.879-5.889,14.879Z" fill="#f7f7f5"/>
        <path id="Path_89" data-name="Path 89" d="M669.595,7.8V42.2h-8.059V7.8h-9.3V.853H678.9V7.8Z" fill="#f7f7f5"/>
        <path id="Path_90" data-name="Path 90" d="M692.659.853V42.2H684.6V.853Z" fill="#f7f7f5"/>
        <path id="Path_91" data-name="Path 91" d="M744.861,21.56c0,12.585-9.052,21.574-22.07,21.574s-22.072-8.989-22.072-21.574S709.771-.077,722.791-.077,744.861,8.974,744.861,21.56Zm-8.308,0c0-8.371-5.7-14.322-13.762-14.322s-13.764,5.951-13.764,14.322,5.7,14.258,13.764,14.258S736.553,29.929,736.553,21.56Z" fill="#f7f7f5"/>
        <path id="Path_92" data-name="Path 92" d="M752.923,42.2V.853h5.58l25.17,27.587V.853h8.059V42.2h-5.579l-25.171-27.65V42.2Z" fill="#f7f7f5"/>
      </g>
      <g id="Group_95" data-name="Group 95" style="isolation: isolate">
        <path id="Path_93" data-name="Path 93" d="M473.243.853V42.2h-8.06V.853Z" fill="none" stroke="#001b43" stroke-width="1"/>
        <path id="Path_94" data-name="Path 94" d="M483.287,42.2V.853h5.58l25.17,27.587V.853H522.1V42.2h-5.579l-25.171-27.65V42.2Z" fill="none" stroke="#001b43" stroke-width="1"/>
        <path id="Path_95" data-name="Path 95" d="M536.359.853l11.035,27.774L558.429.853h8.8L549.75,42.2h-4.836L527.555.853Z" fill="none" stroke="#001b43" stroke-width="1"/>
        <path id="Path_96" data-name="Path 96" d="M580.751.853V42.2h-8.06V.853Z" fill="none" stroke="#001b43" stroke-width="1"/>
        <path id="Path_97" data-name="Path 97" d="M603.813,7.8V42.2h-8.059V7.8h-9.3V.853h26.658V7.8Z" fill="none" stroke="#001b43" stroke-width="1"/>
        <path id="Path_98" data-name="Path 98" d="M640.889,33.524H624.213l-3.659,8.68h-8.741L629.606.853h6.323l17.3,41.351h-8.679Zm-2.356-6.571-5.89-14.879-5.889,14.879Z" fill="none" stroke="#001b43" stroke-width="1"/>
        <path id="Path_99" data-name="Path 99" d="M669.595,7.8V42.2h-8.059V7.8h-9.3V.853H678.9V7.8Z" fill="none" stroke="#001b43" stroke-width="1"/>
        <path id="Path_100" data-name="Path 100" d="M692.659.853V42.2H684.6V.853Z" fill="none" stroke="#001b43" stroke-width="1"/>
        <path id="Path_101" data-name="Path 101" d="M744.861,21.56c0,12.585-9.052,21.574-22.07,21.574s-22.072-8.989-22.072-21.574S709.771-.077,722.791-.077,744.861,8.974,744.861,21.56Zm-8.308,0c0-8.371-5.7-14.322-13.762-14.322s-13.764,5.951-13.764,14.322,5.7,14.258,13.764,14.258S736.553,29.929,736.553,21.56Z" fill="none" stroke="#001b43" stroke-width="1"/>
        <path id="Path_102" data-name="Path 102" d="M752.923,42.2V.853h5.58l25.17,27.587V.853h8.059V42.2h-5.579l-25.171-27.65V42.2Z" fill="none" stroke="#001b43" stroke-width="1"/>
      </g>
    </g>
    <g id="taro_hanako_2022.12.17" data-name="taro hanako 2022.12.17" style="isolation: isolate">
      <g id="Group_96" data-name="Group 96" style="isolation: isolate">
        <path id="Path_103" data-name="Path 103" d="M488.691,78.786V93.2h-1.012V78.786H483.7v-.92h8.969v.92Z" fill="#001b43"/>
        <path id="Path_104" data-name="Path 104" d="M503.042,88.536a4.921,4.921,0,1,1-4.921-4.921A4.84,4.84,0,0,1,503.042,88.536Zm-.966,0a3.956,3.956,0,1,0-3.955,4.047A3.933,3.933,0,0,0,502.076,88.536Z" fill="#001b43"/>
        <path id="Path_105" data-name="Path 105" d="M510.748,85.547a1.717,1.717,0,0,0-1.633-1.058,1.51,1.51,0,0,0-1.586,1.494c0,.92.735,1.219,1.655,1.587a5.142,5.142,0,0,1,2.415,1.38,2.257,2.257,0,0,1,.483,1.518,2.865,2.865,0,0,1-3.059,2.989,3.212,3.212,0,0,1-3.242-2.483l.9-.277a2.4,2.4,0,0,0,2.346,1.886,2.012,2.012,0,0,0,2.093-2.069c0-1.058-.667-1.449-2.093-2.024a4.646,4.646,0,0,1-2.047-1.242,1.967,1.967,0,0,1-.414-1.219,2.381,2.381,0,0,1,2.507-2.414,2.526,2.526,0,0,1,2.46,1.518Z" fill="#001b43"/>
        <path id="Path_106" data-name="Path 106" d="M515.418,76.44h.92v8.854a3.131,3.131,0,0,1,2.874-1.679,2.913,2.913,0,0,1,2.6,1.311,4.519,4.519,0,0,1,.46,2.368V93.2h-.92v-5.91a3.467,3.467,0,0,0-.368-1.885,1.992,1.992,0,0,0-1.84-.92,2.468,2.468,0,0,0-2.3,1.311,5.092,5.092,0,0,0-.505,2.529V93.2h-.92Z" fill="#001b43"/>
        <path id="Path_107" data-name="Path 107" d="M525.974,80.694a.829.829,0,1,1,.828.852A.815.815,0,0,1,525.974,80.694Zm1.287,3.128V93.2h-.919V83.822Z" fill="#001b43"/>
        <path id="Path_108" data-name="Path 108" d="M532.484,76.44V87.847l3.862-4.025h1.2l-3.955,4.071L538.83,93.2h-1.242l-4.622-4.644-.482.482V93.2h-.92V76.44Z" fill="#001b43"/>
        <path id="Path_109" data-name="Path 109" d="M541.062,80.694a.828.828,0,1,1,.828.852A.815.815,0,0,1,541.062,80.694Zm1.287,3.128V93.2h-.919V83.822Z" fill="#001b43"/>
        <path id="Path_110" data-name="Path 110" d="M565.117,87.869a16.673,16.673,0,0,1-1.954,2.231l2.3,3.1h-1.289L562.4,90.79a15.258,15.258,0,0,1-2.713,1.954,6.023,6.023,0,0,1-2.852.759,3.8,3.8,0,0,1-2.783-1.058,3.937,3.937,0,0,1-1.2-2.9,4.522,4.522,0,0,1,1.012-2.9,8.294,8.294,0,0,1,1.931-1.632l1.633-1.058c-1.057-1.633-1.541-2.392-1.541-3.4a3,3,0,0,1,.874-2.116,2.978,2.978,0,0,1,4.07-.091,2.706,2.706,0,0,1,.851,2.091,3.259,3.259,0,0,1-1.127,2.461,14.242,14.242,0,0,1-1.725,1.334l3.749,5.059a22.572,22.572,0,0,0,1.793-2.047Zm-7.128-3.127-1.448.943a7.4,7.4,0,0,0-1.955,1.678,3.27,3.27,0,0,0-.666,2.116,3.15,3.15,0,0,0,.8,2.23,2.815,2.815,0,0,0,2.139.874,5.61,5.61,0,0,0,2.689-.827,10.943,10.943,0,0,0,2.278-1.772Zm1.977-2.6a2.264,2.264,0,0,0,.713-1.679,1.81,1.81,0,0,0-1.863-1.908,1.8,1.8,0,0,0-1.264.506,2.173,2.173,0,0,0-.644,1.54c0,1.035.828,2,1.357,2.851A10.519,10.519,0,0,0,559.966,82.144Z" fill="#001b43"/>
        <path id="Path_111" data-name="Path 111" d="M578.435,78.786V93.2h-1.012V78.786h-3.978v-.92h8.969v.92Z" fill="#001b43"/>
        <path id="Path_112" data-name="Path 112" d="M583.91,88.628a3.767,3.767,0,0,0,3.725,3.955,3.58,3.58,0,0,0,3.266-2.139l.782.46a4.534,4.534,0,0,1-4.117,2.553c-2.92,0-4.621-2.161-4.621-4.9a4.567,4.567,0,0,1,4.553-4.945c2.529,0,4.437,2.024,4.437,5.013Zm7.06-.874a3.523,3.523,0,0,0-3.472-3.265,3.585,3.585,0,0,0-3.518,3.265Z" fill="#001b43"/>
        <path id="Path_113" data-name="Path 113" d="M595.64,83.822h.92v1.219a2.217,2.217,0,0,1,2.07-1.426,2.185,2.185,0,0,1,.989.23l-.461.828a1.062,1.062,0,0,0-.69-.184c-1.884,0-1.908,2.506-1.908,3.679V93.2h-.92Z" fill="#001b43"/>
        <path id="Path_114" data-name="Path 114" d="M603.047,83.822v5.657a3.632,3.632,0,0,0,.6,2.345,2.665,2.665,0,0,0,3.725,0,3.638,3.638,0,0,0,.6-2.345V83.822h.92v5.909a4.048,4.048,0,0,1-.713,2.577,3.67,3.67,0,0,1-5.334,0,4.053,4.053,0,0,1-.712-2.577V83.822Z" fill="#001b43"/>
        <path id="Path_115" data-name="Path 115" d="M613.189,83.822h.92V85a2.671,2.671,0,0,1,2.438-1.38,2.591,2.591,0,0,1,2.621,1.7,2.91,2.91,0,0,1,2.782-1.7,2.868,2.868,0,0,1,2.116.782,3.425,3.425,0,0,1,.8,2.552V93.2h-.92V86.949a2.723,2.723,0,0,0-.553-1.931,1.865,1.865,0,0,0-1.4-.529c-2.483,0-2.506,2.484-2.506,3.058V93.2h-.92V87.18c0-.6-.047-2.691-2.07-2.691-1.632,0-2.391,1.426-2.391,3.288V93.2h-.92Z" fill="#001b43"/>
        <path id="Path_116" data-name="Path 116" d="M628.806,80.694a.828.828,0,1,1,.828.852A.815.815,0,0,1,628.806,80.694Zm1.287,3.128V93.2h-.92V83.822Z" fill="#001b43"/>
        <path id="Path_117" data-name="Path 117" d="M640.7,88.007h9.2v.874h-9.2Z" fill="#001b43"/>
      </g>
      <g id="Group_97" data-name="Group 97" style="isolation: isolate">
        <path id="Path_118" data-name="Path 118" d="M660.164,93.2,665.8,87a17.706,17.706,0,0,0,1.6-1.98,4.543,4.543,0,0,0,.858-2.508,3.255,3.255,0,0,0-3.41-3.3,3.211,3.211,0,0,0-2.53,1.078,3.587,3.587,0,0,0-.858,2.4h-.968a4.42,4.42,0,0,1,1.166-3.081,4.354,4.354,0,0,1,3.256-1.276,4.155,4.155,0,0,1,4.357,4.181,5.02,5.02,0,0,1-1.057,3.014c-.33.462-.879,1.122-1.3,1.584l-4.709,5.215h7v.88Z" fill="#001b43"/>
        <path id="Path_119" data-name="Path 119" d="M681.329,80.112a9.821,9.821,0,0,1,0,11.53,4.21,4.21,0,0,1-6.909,0,9.817,9.817,0,0,1,0-11.53,4.239,4.239,0,0,1,6.909,0ZM680.6,91.069a9.3,9.3,0,0,0,0-10.384,3.261,3.261,0,0,0-5.457,0,9.3,9.3,0,0,0,0,10.384,3.235,3.235,0,0,0,5.457,0Z" fill="#001b43"/>
        <path id="Path_120" data-name="Path 120" d="M685.331,93.2,690.964,87a17.824,17.824,0,0,0,1.606-1.98,4.551,4.551,0,0,0,.858-2.508,3.256,3.256,0,0,0-3.411-3.3,3.213,3.213,0,0,0-2.53,1.078,3.592,3.592,0,0,0-.858,2.4h-.968a4.419,4.419,0,0,1,1.166-3.081,4.357,4.357,0,0,1,3.257-1.276,4.154,4.154,0,0,1,4.356,4.181,5.025,5.025,0,0,1-1.056,3.014c-.33.462-.88,1.122-1.3,1.584l-4.708,5.215h7v.88Z" fill="#001b43"/>
        <path id="Path_121" data-name="Path 121" d="M697.519,93.2,703.152,87a17.6,17.6,0,0,0,1.605-1.98,4.543,4.543,0,0,0,.859-2.508,3.256,3.256,0,0,0-3.41-3.3,3.215,3.215,0,0,0-2.531,1.078,3.587,3.587,0,0,0-.858,2.4h-.968a4.419,4.419,0,0,1,1.166-3.081,4.354,4.354,0,0,1,3.256-1.276,4.156,4.156,0,0,1,4.358,4.181,5.026,5.026,0,0,1-1.057,3.014c-.33.462-.88,1.122-1.3,1.584l-4.709,5.215h7v.88Z" fill="#001b43"/>
        <path id="Path_122" data-name="Path 122" d="M711.423,91.729a.815.815,0,1,1-.814.815A.8.8,0,0,1,711.423,91.729Z" fill="#001b43"/>
        <path id="Path_123" data-name="Path 123" d="M717.935,79.408h-2.288l.441-.88H718.9V93.2h-.969Z" fill="#001b43"/>
        <path id="Path_124" data-name="Path 124" d="M722.6,93.2,728.232,87a17.713,17.713,0,0,0,1.606-1.98,4.551,4.551,0,0,0,.858-2.508,3.256,3.256,0,0,0-3.41-3.3,3.212,3.212,0,0,0-2.53,1.078,3.582,3.582,0,0,0-.859,2.4h-.968a4.42,4.42,0,0,1,1.166-3.081,4.355,4.355,0,0,1,3.256-1.276,4.156,4.156,0,0,1,4.358,4.181,5.026,5.026,0,0,1-1.057,3.014c-.33.462-.88,1.122-1.3,1.584l-4.709,5.215h7v.88Z" fill="#001b43"/>
        <path id="Path_125" data-name="Path 125" d="M736.5,91.729a.815.815,0,1,1-.815.815A.8.8,0,0,1,736.5,91.729Z" fill="#001b43"/>
        <path id="Path_126" data-name="Path 126" d="M743.015,79.408h-2.288l.44-.88h2.816V93.2h-.968Z" fill="#001b43"/>
        <path id="Path_127" data-name="Path 127" d="M757.271,79.408H748.36v-.88h10.628l-10.5,14.918-.726-.55Z" fill="#001b43"/>
      </g>
    </g>
    <g id="Party" style="isolation: isolate">
      <g id="Group_98" data-name="Group 98" style="isolation: isolate">
        <path id="Path_128" data-name="Path 128" d="M505.964-44.4c3.984-9.751,6.069-20.267,11.05-29.612,4.748-8.914,15.643-20.558,26.482-12.723,5.944,4.295,6,13.362,5.417,19.89a72.861,72.861,0,0,1-5.125,19.953c-1.1,2.8-5.143,10.621,1.114,8.417,6.146-2.165,11.5-7.295,14.9-12.747,1.186-1.9,3.273-4.266,5.162-3.056,1.7,1.092.865,3.726-.252,5.409a47.115,47.115,0,0,1-22.041,17.738c-3.121,1.212-6.381,2.092-9.375,3.589-4.071,2.032-7.754,5.228-12.275,5.738-3.5.4-7.345-1.2-8.888-4.364a8.3,8.3,0,0,1,2.07-9.413,11.464,11.464,0,0,1,9.645-2.533c2.936.505,5.979,1.929,8.752.842,4.034-1.581,5.367-7.993,6.739-11.636a79.117,79.117,0,0,0,4.311-18.061,19.628,19.628,0,0,0-1.8-11.7c-3.382-6.251-11.371-3.966-15.406.336-5.544,5.914-13.083,28.974-16.384,36.623a175.678,175.678,0,0,0-9.915,32.174c-.618,2.826-.965,5.71-1.368,8.59-1.01,7.206-2.461,14.318-3.749,21.463a13.775,13.775,0,0,1-.55,2.092c-.812,2.309-2.473,3.472-3.909,2.734-1.8-.928-1.623-2.769-1.586-4.449a23.424,23.424,0,0,1,.43-4.355,458.414,458.414,0,0,0,8.571-53.028c1.469-15.45,4.151-31.083,4.715-46.6.088-2.44-.013-4.9.139-7.327a2.164,2.164,0,0,1,2.117-2.26,2.234,2.234,0,0,1,2.35,2.1A53.173,53.173,0,0,1,507.347-84c-.328,8.543-4.5,32.907-4.79,41.454-.037,1.11-.413,2.409.72,3.658C504.849-40.305,505.2-42.529,505.964-44.4ZM525.033-30.22c.395-1.234-2.236-2.152-5.009-1.716-1.865.293-3.428,1.952-2.817,3.05a3.709,3.709,0,0,0,3.531,1.837C522.292-27.522,524.31-27.966,525.033-30.22Z" fill="#e0c241"/>
        <path id="Path_129" data-name="Path 129" d="M573.454-40.21c-1.235,1.993-3.125,3.29-4.848,4.779a7.091,7.091,0,0,1-4.2,1.548c-3.778.346-6.331-1.665-6.575-5.437A19.506,19.506,0,0,1,561.4-51.663c2.588-3.866,6.491-5.783,10.666-7.189,2.281-.769,4.806-.707,6.965-2.038.722-.443,2.045.52,2.031,1.425a13.48,13.48,0,0,1-.366,2.769,25.023,25.023,0,0,0-.334,7.95c.35,3.586,2.125,5.36,5.722,6.093a12.938,12.938,0,0,0,6.741-.559,25.638,25.638,0,0,0,9.807-5.662c4.471-4.23,9.252-8.447,12.965-13.321a5.253,5.253,0,0,1,1.6-1.568,1.793,1.793,0,0,1,2.094.187,2.03,2.03,0,0,1,.469,1.152,6.2,6.2,0,0,1-.929,3.885c-1.322,2.253-3.551,3.825-5.359,5.665-3.2,3.254-6.634,6.272-10.032,9.316-3.795,3.4-8.392,5.05-13.317,6.055-4.243.866-7.86-.322-11.229-2.781-1.053-.77-1.763-2-3.134-2.331C574.484-42.282,574.041-41.159,573.454-40.21Zm-.244-14.463a14.513,14.513,0,0,0-10.4,13.468c-.054,1.856,1.336,2.834,2.994,2.035a6.978,6.978,0,0,0,2.368-1.52c2.8-3.364,5.381-6.887,6.561-11.206a5.6,5.6,0,0,0,.13-1.285A1.384,1.384,0,0,0,573.21-54.673Z" fill="#e0c241"/>
        <path id="Path_130" data-name="Path 130" d="M622.289-56.733c-6.48-1.373-12.533-8.137-8.477-14.776a5.242,5.242,0,0,1,4.739-2.66c3.015-.008,4.521,2.024,3.66,4.948a11.1,11.1,0,0,1-1.9,3.478c-1.207,1.622-.842,2.614.94,3.485a8.209,8.209,0,0,0,4.978.82c3.415-.521,6.728-1.265,9.661-3.235a1.973,1.973,0,0,1,2.623.079,2.5,2.5,0,0,1,.542,2.662c-.989,2.865-2.389,5.556-3.026,8.59-.618,2.934-1.2,5.776,1.348,7.919,3.877,3.251,10.916-.858,14.13-3.358,3.638-2.828,6.822-6.206,10.4-9.116,3.389-2.756,6.721-5.594,10.11-8.332a4.716,4.716,0,0,1,2.634-1.267,1.835,1.835,0,0,1,1.988,1.725,2.381,2.381,0,0,1-.4,1.013c-1.613,2.651-4.55,4.611-6.962,6.483-2.949,2.29-5.879,4.6-8.683,7.065-6.178,5.447-12.514,11.361-21.184,11.587a8.493,8.493,0,0,1-8.554-9.842c.38-2.418,1.14-4.777,1.078-7.407C628.684-57.582,625.5-56.053,622.289-56.733Z" fill="#e0c241"/>
        <path id="Path_131" data-name="Path 131" d="M706.043-99.334c2.045-.28,3.082.141,3.3,1.273a3.192,3.192,0,0,1-3.113,3.825c-7.265-.079-14.367,1.59-21.593,1.946-3.4.167-3.439.4-4.283,4.043-2.863,12.373-3.267,25.488-4.53,38.1-.167,1.668-.3,3.473.576,4.9,2.134,3.467,6.3,1.539,8.758-.37,8.2-6.384,13.613-14.937,19.624-23.274a2.592,2.592,0,0,1,1.233-1.1c.948-.279,1.9.662,2.017,1.641a5.086,5.086,0,0,1-.777,2.811,68.956,68.956,0,0,1-13.193,18.4c-5.63,5.673-13.422,12.4-21.158,5.963a5.907,5.907,0,0,1-2.064-4.55,26.434,26.434,0,0,1,.146-3.423c.972-8.694,1.9-17.393,2.988-26.072.566-4.524,1.441-9.012,2.126-13.524.283-1.856-.289-2.573-2.1-2.378a145.812,145.812,0,0,1-15.4.74c-1.374,0-2.642-.11-3.591-1.3-.567-.716-.336-2.164.52-2.363a19.977,19.977,0,0,1,3.357-.546c4.939-.3,9.879-.509,14.819-.805,2.908-.175,3.416-.475,3.874-3.162.735-4.309,1.24-8.659,1.824-12.994.28-2.073.453-4.164.81-6.227a1.49,1.49,0,0,1,1.7-1.16,1.549,1.549,0,0,1,1.522,1.428,18.371,18.371,0,0,1,.044,3.971c-.549,4.915-1.218,9.82-1.786,14.732-.212,1.818.466,2.528,2.254,2.308q5.67-.7,11.338-1.415Q700.668-98.61,706.043-99.334Z" fill="#e0c241"/>
        <path id="Path_132" data-name="Path 132" d="M718.827-58.9a26.379,26.379,0,0,1-9.406,5.22,6.635,6.635,0,0,1-3.94.275c-2.493-.806-4.24-4.18-4.1-6.69.2-3.707,3.175-10.318,5.5-13.212a1.543,1.543,0,0,1,2.043-.353,1.541,1.541,0,0,1,.853,1.9c-.41,1.465-.98,2.881-1.416,4.339-.271.9-2.175,5.143-2.194,6.072-.059,2.54,1.715,3.589,4.107,2.688a29.133,29.133,0,0,0,10.705-7.62,52.316,52.316,0,0,0,4.158-5.163c.854-1.18,1.774-3.505,3.147-4.074a2.448,2.448,0,0,1,2.182-.062c.823.434.817,1.234.71,1.986-.183,1.315-.492,2.614-.68,3.932q-1.394,9.6-2.747,19.2c-.077.547-.248,1.134.3,1.593,1.332.037,1.919-1.055,2.549-1.9,7.422-10.029,17.984-19.49,26.9-28.121a27.362,27.362,0,0,1,4.135-3.02,1.894,1.894,0,0,1,2.139.181c3.277,2.184-1.525,5.28-3.027,6.467a164.608,164.608,0,0,0-30.226,31.684c-2.777,3.886-4.937,7.893-5.509,12.9-.833,7.314-2.149,15.592-4.687,22.532-1.624,4.442-8.785,9.6-11.063,2.525a9.445,9.445,0,0,1,.25-5.221,65.445,65.445,0,0,1,7.8-18.224c3.889-6.167,4.967-13.106,5.968-19.968.628-4.3,1.785-8.56,1.777-12.953a12.687,12.687,0,0,0-.149-2.022C724.819-64.479,719.193-59.213,718.827-58.9Zm-2.819,41.945c-1.158,2.828-2.774,5.317-2.065,8.516.049.213.145.468.361.5a.538.538,0,0,0,.372-.131c1.359-.959,1.873-2.707,2.2-4.337.313-1.546,1.432-4.828.218-6.075A4.988,4.988,0,0,0,716.008-16.956Z" fill="#e0c241"/>
      </g>
    </g>
  </g>
</svg>
